<?xml version="1.0" encoding="utf-8"?>
<!DOCTYPE svg PUBLIC "-//W3C//DTD SVG 1.1//EN" "http://www.w3.org/Graphics/SVG/1.1/DTD/svg11.dtd">
<svg version="1.1" id="Layer_1" xmlns="http://www.w3.org/2000/svg" xmlns:xlink="http://www.w3.org/1999/xlink" x="0px" y="0px"
	 viewBox="0 0 1619.8002 1619.8002" enable-background="new 0 0 1619.8002 1619.8002" xml:space="preserve">
<g>
	<linearGradient id="SVGID_1_" gradientUnits="userSpaceOnUse" x1="1673.1351" y1="971.164" x2="997.1351" y2="1179.1639">
		<stop  offset="0" style="stop-color:#FFFFFF"/>
		<stop  offset="1" style="stop-color:#000000"/>
	</linearGradient>
	<path fill="url(#SVGID_1_)" d="M1211.9988,865.6696c-74.901,0.3038-145.1699-14.0939-209.5546-42.8554l-74.6273,129.2584
		c6.547,154.7162,93.083,299.746,245.3763,410.1821c40.2131,29.1606,83.7844,55.03,130.0879,77.427
		c186.6799-146.453,306.6191-374.1094,306.6191-629.7816c0-24.7705-1.1348-49.2754-3.3381-73.4716
		c-39.7395,25.9507-80.6134,48.3398-122.3972,66.9888C1392.4202,844.3649,1300.8501,865.3097,1211.9988,865.6696z"/>
	<linearGradient id="SVGID_2_" gradientUnits="userSpaceOnUse" x1="514.9854" y1="-18.5815" x2="1032.9854" y2="459.4185">
		<stop  offset="0" style="stop-color:#FFFFFF"/>
		<stop  offset="1" style="stop-color:#000000"/>
	</linearGradient>
	<path fill="url(#SVGID_2_)" d="M467.1535,229.2111c81.334,58.9795,145.2578,127.8091,189.9951,204.5767
		c37.7136,64.7142,60.3792,132.7678,67.6633,202.9072h149.2546c130.7146-83.028,213.0462-230.4853,232.5401-417.5931
		c5.1536-49.4654,5.7659-100.1967,1.9954-151.5587c-92.2925-37.1709-193.1048-57.6431-298.702-57.6431
		c-172.0914,0-331.4872,54.3438-461.9746,146.7986C390.275,178.1407,430.1066,202.3466,467.1535,229.2111z"/>
	<linearGradient id="SVGID_3_" gradientUnits="userSpaceOnUse" x1="1375.021" y1="129.6936" x2="1227.021" y2="827.6937">
		<stop  offset="0" style="stop-color:#FFFFFF"/>
		<stop  offset="1" style="stop-color:#000000"/>
	</linearGradient>
	<path fill="url(#SVGID_3_)" d="M1141.4182,222.7283c-10.4106,99.9271-38.0569,189.7015-82.1709,266.8289
		c-37.1876,65.018-84.7908,118.6738-141.8913,160.0518l74.6273,129.2584c137.2618,71.6882,306.1292,69.2607,477.9163-7.411
		c45.3821-20.2549,89.5917-45.0684,132.1587-73.9878c-38.4762-273.5593-215.3125-502.6937-457.4637-614.3879
		C1147.2096,130.5246,1146.1648,177.1687,1141.4182,222.7283z"/>
	<linearGradient id="SVGID_4_" gradientUnits="userSpaceOnUse" x1="-52.7436" y1="653.5549" x2="621.2564" y2="439.5549">
		<stop  offset="0" style="stop-color:#FFFFFF"/>
		<stop  offset="1" style="stop-color:#000000"/>
	</linearGradient>
	<path fill="url(#SVGID_4_)" d="M407.8015,754.1306c74.9009-0.3038,145.1699,14.0939,209.5545,42.8555l74.6273-129.2584
		c-6.547-154.7161-93.083-299.7459-245.3762-410.1821c-40.2131-29.1606-83.7844-55.0301-130.088-77.427
		C129.8392,326.5716,9.9001,554.228,9.9001,809.9001c0,24.7705,1.1349,49.2754,3.3381,73.4716
		c39.7395-25.9507,80.6134-48.3399,122.3972-66.9889C227.3801,775.4353,318.9502,754.4904,407.8015,754.1306z"/>
	<linearGradient id="SVGID_5_" gradientUnits="userSpaceOnUse" x1="250.6271" y1="1485.7722" x2="390.6271" y2="795.7722">
		<stop  offset="0" style="stop-color:#FFFFFF"/>
		<stop  offset="1" style="stop-color:#000000"/>
	</linearGradient>
	<path fill="url(#SVGID_5_)" d="M478.382,1397.0718c10.4108-99.927,38.057-189.7014,82.171-266.8289
		c37.1875-65.0179,84.7908-118.6738,141.8912-160.0518l-74.6273-129.2584c-137.2617-71.6882-306.1291-69.2607-477.9163,7.4109
		c-45.382,20.2549-89.5917,45.0684-132.1586,73.9877c38.4761,273.5594,215.3123,502.6937,457.4636,614.388
		C472.5906,1489.2756,473.6354,1442.6315,478.382,1397.0718z"/>
	<linearGradient id="SVGID_6_" gradientUnits="userSpaceOnUse" x1="1112.8761" y1="1636.1799" x2="576.8761" y2="1154.1799">
		<stop  offset="0" style="stop-color:#FFFFFF"/>
		<stop  offset="1" style="stop-color:#000000"/>
	</linearGradient>
	<path fill="url(#SVGID_6_)" d="M1152.6467,1390.5891c-81.334-58.9795-145.2579-127.8091-189.9952-204.5767
		c-37.7136-64.7141-60.3792-132.7678-67.6633-202.9073H745.7336c-130.7146,83.028-213.0461,230.4853-232.54,417.5931
		c-5.1535,49.4655-5.7659,100.1968-1.9953,151.5588c92.2924,37.1709,193.1047,57.6431,298.7018,57.6431
		c172.0914,0,331.4874-54.3438,461.9747-146.7986C1229.5253,1441.6595,1189.6936,1417.4536,1152.6467,1390.5891z"/>
</g>
</svg>
